<svg height='300px' width='300px'  fill="#000000" xmlns="http://www.w3.org/2000/svg" viewBox="0 0 33.826 59.118" x="0px" y="0px">
    <title>Blockpad-interrogation</title>
    <g>
        <path d="M29.211,15.31c-1.158.716-1.794,1.11-2.172,1.322v.6c1.482-1.044,3.006-2.191,4.118-3.119C30.481,14.523,29.771,14.963,29.211,15.31Z" transform="translate(0.005 -0.003)" fill="none"></path><path d="M27.1,18.413a.461.461,0,0,1-.06.021v.2c.114-.127.24-.261.391-.412Z" transform="translate(0.005 -0.003)" fill="none"></path><path d="M32.449,16.178v-.753a51.017,51.017,0,0,0-4.36,3.548C29.187,18.361,30.879,17.268,32.449,16.178Z" transform="translate(0.005 -0.003)" fill="none"></path><path d="M27.039,24.715v.232c.191-.152.4-.317.65-.507A5.479,5.479,0,0,1,27.039,24.715Z" transform="translate(0.005 -0.003)" fill="none"></path><path d="M32.449,18.39v-.62c-.536.5-1.265,1.165-2.262,2.059C30.916,19.376,31.69,18.882,32.449,18.39Z" transform="translate(0.005 -0.003)" fill="none"></path><path d="M10.953,1.223c-.023.038-.033.064-.061.107.064-.039.122-.069.186-.107Z" transform="translate(0.005 -0.003)" fill="none"></path><path d="M23.833,1.223a5.231,5.231,0,0,1-.678.8l1.384-.8Z" transform="translate(0.005 -0.003)" fill="none"></path><path d="M18.495,6.633a4,4,0,0,1,1.051-1.372L17.17,6.633Z" transform="translate(0.005 -0.003)" fill="none"></path><path d="M32.449,10.053v-.024c-.02.02-.033.035-.054.055Z" transform="translate(0.005 -0.003)" fill="none"></path><path d="M27.039,22.707v.514l1.26-1.1A7.685,7.685,0,0,1,27.039,22.707Z" transform="translate(0.005 -0.003)" fill="none"></path><path d="M27.039,9.447V9.7c.178-.182.357-.36.53-.542C27.361,9.279,27.191,9.369,27.039,9.447Z" transform="translate(0.005 -0.003)" fill="none"></path><path d="M32.449,20.351v-.54L30.068,21.9C30.834,21.415,31.651,20.883,32.449,20.351Z" transform="translate(0.005 -0.003)" fill="none"></path><path d="M27.039,20.44v.852c.562-.5,1.156-1.032,1.768-1.582A5.726,5.726,0,0,1,27.039,20.44Z" transform="translate(0.005 -0.003)" fill="none"></path><path d="M26.04,4.576v-.4c-.244.272-.525.581-.857.945C25.468,4.946,25.754,4.76,26.04,4.576Z" transform="translate(0.005 -0.003)" fill="none"></path><path d="M27.039,8.18v.126c.319-.187.694-.419,1.091-.673h-.9C27.193,7.767,27.128,7.945,27.039,8.18Z" transform="translate(0.005 -0.003)" fill="none"></path><path d="M30.947,13.072c.7-.419,1.165-.689,1.5-.866v-.529C32.076,12.04,31.59,12.492,30.947,13.072Z" transform="translate(0.005 -0.003)" fill="none"></path><path d="M30.143,7.726c.056-.034.106-.06.161-.093H30.2C30.175,7.667,30.167,7.689,30.143,7.726Z" transform="translate(0.005 -0.003)" fill="none"></path><path d="M32.449,8.379V8.015c-1.807,1.25-3.688,2.654-4.733,3.568A45.615,45.615,0,0,0,32.449,8.379Z" transform="translate(0.005 -0.003)" fill="none"></path><path d="M26.04,2.365v-.8a54.762,54.762,0,0,0-6.021,4.61A64.174,64.174,0,0,0,26.04,2.365Z" transform="translate(0.005 -0.003)" fill="none"></path><path d="M19.629,52.887c-1.807,1.249-3.688,2.653-4.733,3.567a45.475,45.475,0,0,0,4.733-3.2Z" transform="translate(0.005 -0.003)" fill="none"></path><path d="M32.449,22.254v-.185c-.236.2-.5.408-.812.654Z" transform="translate(0.005 -0.003)" fill="none"></path><path d="M14.219,54.319v.252c.178-.182.356-.359.529-.54C14.54,54.151,14.371,54.241,14.219,54.319Z" transform="translate(0.005 -0.003)" fill="none"></path><path d="M19.629,54.909l-.036.038.036-.021Z" transform="translate(0.005 -0.003)" fill="none"></path><path d="M14.219,53.177c.318-.188.693-.419,1.089-.672h-.894c-.042.133-.107.311-.2.545Z" transform="translate(0.005 -0.003)" fill="none"></path><path d="M17.375,52.5c-.021.034-.028.056-.053.094.056-.034.108-.061.163-.094Z" transform="translate(0.005 -0.003)" fill="none"></path><path d="M14.219,57.808v.107h.119l.361-.269A3.863,3.863,0,0,1,14.219,57.808Z" transform="translate(0.005 -0.003)" fill="none"></path><path d="M20.629,28.679v.253c.178-.182.357-.36.53-.542C20.95,28.51,20.781,28.6,20.629,28.679Z" transform="translate(0.005 -0.003)" fill="none"></path><path d="M21.257,6.633h1.179c.5-.538,1.006-1.094,1.49-1.625C22.994,5.615,22.069,6.185,21.257,6.633Z" transform="translate(0.005 -0.003)" fill="none"></path><path d="M27.039,14.331v.855c.963-.842,1.924-1.693,2.772-2.455Z" transform="translate(0.005 -0.003)" fill="none"></path><path d="M28.2,25.864h1.188c.482-.5.978-1.024,1.432-1.513Z" transform="translate(0.005 -0.003)" fill="none"></path><path d="M24.651,6.633h1l.229-.759C25.395,6.18,24.993,6.428,24.651,6.633Z" transform="translate(0.005 -0.003)" fill="none"></path><path d="M26.039,27.246c-1.807,1.25-3.688,2.654-4.733,3.568a45.755,45.755,0,0,0,4.733-3.2Z" transform="translate(0.005 -0.003)" fill="none"></path><path d="M26.006,29.3l.033-.019v-.016Z" transform="translate(0.005 -0.003)" fill="none"></path><path d="M23.786,26.864c-.021.034-.028.056-.053.094.056-.034.107-.061.163-.094Z" transform="translate(0.005 -0.003)" fill="none"></path><path d="M20.629,27.537c.319-.188.694-.42,1.091-.673h-.895c-.042.134-.107.312-.2.548Z" transform="translate(0.005 -0.003)" fill="none"></path><path d="M19.014,56.435l-2.565,1.48h1.722C18.464,57.408,18.758,56.891,19.014,56.435Z" transform="translate(0.005 -0.003)" fill="none"></path><path d="M16.416,45.095h1.3c.326-.474.66-.964.971-1.423C17.806,44.261,17.051,44.732,16.416,45.095Z" transform="translate(0.005 -0.003)" fill="none"></path><path d="M19.629,34.019v-.363c-1.807,1.25-3.687,2.653-4.733,3.568A45.545,45.545,0,0,0,19.629,34.019Z" transform="translate(0.005 -0.003)" fill="none"></path><path d="M14.219,39.971v.854c.961-.841,1.922-1.691,2.769-2.453Z" transform="translate(0.005 -0.003)" fill="none"></path><path d="M17.321,33.367c.056-.034.106-.06.161-.093h-.109C17.353,33.308,17.346,33.33,17.321,33.367Z" transform="translate(0.005 -0.003)" fill="none"></path><path d="M15.832,3.289,10.039,6.633h1.845C13.236,5.505,14.636,4.32,15.832,3.289Z" transform="translate(0.005 -0.003)" fill="none"></path><path d="M27.039,12.937v.088l.2-.14C27.164,12.91,27.105,12.919,27.039,12.937Z" transform="translate(0.005 -0.003)" fill="none"></path><path d="M19.629,41.816v-.744a50.484,50.484,0,0,0-4.112,3.387C16.573,43.864,18.155,42.839,19.629,41.816Z" transform="translate(0.005 -0.003)" fill="none"></path><path d="M15.333,6.539a73.257,73.257,0,0,0,6.548-4.7c-1.519.874-3.738,2.25-5.406,3.285-1.051.652-1.843,1.141-2.446,1.508h1.207A.483.483,0,0,1,15.333,6.539Z" transform="translate(0.005 -0.003)" fill="none"></path><path d="M21.108,32.006a3.841,3.841,0,0,1-.479.162v.106h.119C20.869,32.185,20.988,32.1,21.108,32.006Z" transform="translate(0.005 -0.003)" fill="none"></path><path d="M14.219,33.817v.128c.318-.187.692-.418,1.088-.671h-.893C14.372,33.407,14.307,33.584,14.219,33.817Z" transform="translate(0.005 -0.003)" fill="none"></path><path d="M19.576,35.723l.053-.03v-.024C19.609,35.688,19.6,35.7,19.576,35.723Z" transform="translate(0.005 -0.003)" fill="none"></path><path d="M14.219,38.579v.087l.2-.14C14.344,38.551,14.285,38.56,14.219,38.579Z" transform="translate(0.005 -0.003)" fill="none"></path><path d="M25.425,30.793l-2.565,1.481h1.721C24.873,31.768,25.169,31.25,25.425,30.793Z" transform="translate(0.005 -0.003)" fill="none"></path><path d="M14.279,44.053a.468.468,0,0,1-.06.021v.34a8.145,8.145,0,0,1,.612-.679Z" transform="translate(0.005 -0.003)" fill="none"></path><path d="M18.126,38.712c.7-.42,1.166-.69,1.5-.867v-.529C19.256,37.679,18.77,38.131,18.126,38.712Z" transform="translate(0.005 -0.003)" fill="none"></path><path d="M14.219,42.872c1.48-1.043,3-2.189,4.111-3.116-.676.41-1.387.851-1.946,1.2-1.152.713-1.787,1.106-2.165,1.318Z" transform="translate(0.005 -0.003)" fill="none"></path><path d="M14.219,35.087v.252c.178-.182.356-.359.529-.541C14.54,34.919,14.371,35.01,14.219,35.087Z" transform="translate(0.005 -0.003)" fill="none"></path><path d="M8.17,6.507a3.1,3.1,0,0,1-.361.091v.035h.17Z" transform="translate(0.005 -0.003)" fill="none"></path><path d="M6.809,16.175v-.744A50.582,50.582,0,0,0,2.7,18.818C3.754,18.223,5.336,17.2,6.809,16.175Z" transform="translate(0.005 -0.003)" fill="none"></path><path d="M7.809,1.892c.318-.187.69-.417,1.085-.669H8c-.041.133-.106.311-.193.544Z" transform="translate(0.005 -0.003)" fill="none"></path><path d="M19.567,1.223a27.9,27.9,0,0,1-2.581,2.409c1.765-1.091,3.034-1.862,3.968-2.409Z" transform="translate(0.005 -0.003)" fill="none"></path><path d="M3.6,19.454H4.9c.326-.474.661-.965.971-1.423C4.988,18.619,4.234,19.091,3.6,19.454Z" transform="translate(0.005 -0.003)" fill="none"></path><path d="M13.734,1.223a.476.476,0,0,1-.073.074,55.589,55.589,0,0,0-5.527,4.2,44.2,44.2,0,0,0,6.684-4.27Z" transform="translate(0.005 -0.003)" fill="none"></path><path d="M1.4,14.329v.857c.964-.843,1.927-1.7,2.776-2.459Z" transform="translate(0.005 -0.003)" fill="none"></path><path d="M1.4,12.936v.087l.195-.139C1.522,12.909,1.464,12.918,1.4,12.936Z" transform="translate(0.005 -0.003)" fill="none"></path><path d="M7.809,3.034v.253c.177-.182.355-.359.528-.541C8.129,2.866,7.961,2.956,7.809,3.034Z" transform="translate(0.005 -0.003)" fill="none"></path><path d="M16.6,1.223a3.931,3.931,0,0,1-.754.9l1.563-.9Z" transform="translate(0.005 -0.003)" fill="none"></path><path d="M6.809,8.376V8.012C5,9.262,3.119,10.667,2.073,11.583A45.809,45.809,0,0,0,6.809,8.376Z" transform="translate(0.005 -0.003)" fill="none"></path><path d="M1.4,17.234c1.48-1.044,3-2.19,4.113-3.117-.676.41-1.388.851-1.948,1.2C2.41,16.027,1.775,16.42,1.4,16.631Z" transform="translate(0.005 -0.003)" fill="none"></path><path d="M6.751,10.084l.058-.034v-.026C6.788,10.045,6.773,10.062,6.751,10.084Z" transform="translate(0.005 -0.003)" fill="none"></path><path d="M1.4,9.446V9.7c.177-.181.355-.358.528-.539C1.718,9.279,1.55,9.369,1.4,9.446Z" transform="translate(0.005 -0.003)" fill="none"></path><path d="M5.3,13.074c.7-.421,1.169-.692,1.506-.869v-.532C6.435,12.037,5.949,12.491,5.3,13.074Z" transform="translate(0.005 -0.003)" fill="none"></path><path d="M1.459,18.413a.471.471,0,0,1-.061.021v.34a8.122,8.122,0,0,1,.613-.68Z" transform="translate(0.005 -0.003)" fill="none"></path><path d="M1.4,8.186V8.3c.318-.187.693-.419,1.089-.672H1.6C1.553,7.768,1.488,7.948,1.4,8.186Z" transform="translate(0.005 -0.003)" fill="none"></path><path d="M4.5,7.727c.056-.034.108-.061.163-.094h-.11C4.531,7.667,4.524,7.69,4.5,7.727Z" transform="translate(0.005 -0.003)" fill="none"></path><path d="M33.6,20.225a.5.5,0,0,0-.151-.159v-1.13l.035-.031a.5.5,0,0,0,.069-.678.484.484,0,0,0-.1-.094V16.774c.467-.523.4-.642.292-.836a.5.5,0,0,0-.292-.223V13.268c.512-.676.371-.934.271-1.106a.544.544,0,0,0-.271-.219V10.57c.179-.284.116-.4.034-.537a.47.47,0,0,0-.034-.039V6.633H30.131a.491.491,0,0,0-.12-.055.5.5,0,0,0-.347.055H27.256a.449.449,0,0,0-.216-.386V5.477l.186-.616a.5.5,0,0,0-.179-.545l-.007,0v-1.3c.451-.578.4-.685.289-.88a.493.493,0,0,0-.289-.227V.223h-3.1a.577.577,0,0,0-.294-.205,1.367,1.367,0,0,0-.85.205H19.6a.488.488,0,0,0-.453,0H10.861a.484.484,0,0,0-.1-.045.492.492,0,0,0-.323.045H6.809V.786a.49.49,0,0,0,0,.786v.013l-.04.105c-.39,1.031-.43,1.138-.288,1.388a.582.582,0,0,0,.327.242V5.562c-.22.383-.124.561-.042.7.011.018.03.028.042.046v.323H4.488a.423.423,0,0,0-.468,0H.4V7.2a.494.494,0,0,0-.131.637A.5.5,0,0,0,.4,7.98V8l-.043.113C-.031,9.128-.071,9.233.067,9.483A.59.59,0,0,0,.4,9.732v2.235c-.222.385-.126.565-.044.707.011.019.031.03.044.048v1.015l-.123.088a.5.5,0,0,0-.134.678.492.492,0,0,0,.256.2v1.394A.5.5,0,0,0,.39,16.6l.008.009v3.846H7.809V18.93a.5.5,0,0,0,.123-.692.492.492,0,0,0-.123-.118V16.928c.438-.705.4-.805.29-.995a.5.5,0,0,0-.29-.221V13.261c.5-.669.361-.924.262-1.1a.538.538,0,0,0-.262-.213v-1.4a.411.411,0,0,0,.019-.527c-.005-.008-.014-.013-.019-.021V7.84h0a.5.5,0,0,0,.25-.067l.244-.141h3.488a.447.447,0,0,0,.475,0H25.846a.493.493,0,0,0,.063.2.485.485,0,0,0,.131.147V8c-.01.028-.021.056-.031.082-.4,1.057-.444,1.168-.3,1.405a.592.592,0,0,0,.33.248v2.24a.594.594,0,0,0-.041.7c.01.018.029.028.041.045V13.74l-.119.085a.5.5,0,0,0-.135.678.494.494,0,0,0,.254.194v1.4a.5.5,0,0,0-.008.509l.008.009v9.254H23.721a.491.491,0,0,0-.12-.055.5.5,0,0,0-.348.055H19.629v.564a.494.494,0,0,0-.132.637.5.5,0,0,0,.132.148v.015c-.01.026-.02.052-.029.078-.4,1.064-.447,1.175-.3,1.409a.59.59,0,0,0,.329.247V31.2a.594.594,0,0,0-.04.7c.01.018.029.027.04.044v.325H17.311a.5.5,0,0,0-.121-.056.485.485,0,0,0-.349.056H13.219v.562a.49.49,0,0,0,0,.787v.013c-.011.028-.022.056-.032.083-.4,1.058-.445,1.168-.3,1.406a.59.59,0,0,0,.331.247v2.238c-.22.383-.124.563-.042.7.011.019.03.029.042.046V39.38l-.121.086a.5.5,0,0,0-.134.678.494.494,0,0,0,.254.2v1.392a.5.5,0,0,0-.009.509l.009.01v3.844h7.41V44.57a.5.5,0,0,0,.124-.692.491.491,0,0,0-.124-.12V42.57c.44-.708.4-.808.29-1a.5.5,0,0,0-.29-.22V38.9c.5-.669.36-.925.262-1.1a.537.537,0,0,0-.262-.213V36.2c.171-.278.109-.39.028-.529-.008-.013-.02-.02-.028-.032V33.479l.008,0a.493.493,0,0,0,.25-.067l.24-.139h3.565c.013,0,.022.015.035.019a.379.379,0,0,0,.306-.019h2.005V32.1a.484.484,0,0,0,.289-.729.505.505,0,0,0-.289-.222V29.887c.168-.39.127-.485.048-.625a.489.489,0,0,0-.048-.055V26.864H31.25a.493.493,0,0,0,.268.086.5.5,0,0,0,.228-.055c.019-.01.036-.022.055-.032h1.648v-.954a.5.5,0,0,0,0-.826V22.767a.438.438,0,0,0,0-.5V21.1C33.723,20.739,33.748,20.48,33.6,20.225Zm-1.151,2.029-.812.469c.316-.246.576-.457.813-.654ZM28.2,25.864l2.62-1.513c-.453.488-.95,1.012-1.432,1.513ZM26.006,29.3l.033-.035v.016Zm-2.22-2.439h.11c-.056.033-.107.059-.163.094C23.757,26.92,23.765,26.9,23.786,26.864Zm-2.961,0h.895c-.4.254-.772.486-1.091.673v-.126C20.718,27.176,20.783,27,20.825,26.864Zm-.2,1.815c.152-.078.322-.168.53-.289-.173.182-.352.36-.53.542Zm5.41-1.432v.365a45.755,45.755,0,0,1-4.733,3.2C22.351,29.9,24.232,28.5,26.039,27.246Zm1-12.915,2.772-1.6c-.848.762-1.81,1.613-2.772,2.455Zm-2.388-7.7c.342-.205.743-.453,1.225-.759l-.229.759Zm-3.394,0c.811-.447,1.737-1.018,2.669-1.625-.484.531-.994,1.087-1.49,1.625Zm-2.763,0H17.17l2.376-1.372A4,4,0,0,0,18.495,6.633Zm5.338-5.41h.707l-1.384.8A5.231,5.231,0,0,0,23.833,1.223Zm2.207.344v.8A64.174,64.174,0,0,1,20.02,6.177,54.762,54.762,0,0,1,26.04,1.567Zm6.409,8.486-.054.031c.021-.02.034-.036.054-.055Zm0,8.337c-.759.492-1.534.986-2.262,1.438,1-.893,1.726-1.555,2.262-2.059Zm0-2.212c-1.57,1.09-3.262,2.183-4.36,2.8a51.017,51.017,0,0,1,4.36-3.548Zm-5.41.454c.378-.212,1.014-.606,2.172-1.322.56-.347,1.271-.787,1.946-1.2-1.112.928-2.636,2.075-4.118,3.119Zm0,1.8a.461.461,0,0,0,.06-.021l.331-.191c-.151.15-.276.285-.391.412Zm0,6.282a5.479,5.479,0,0,0,.65-.274c-.249.189-.46.354-.65.507Zm0-1.495v-.514a7.685,7.685,0,0,0,1.26-.589Zm0-1.929V20.44a5.726,5.726,0,0,0,1.768-.729C28.2,20.26,27.6,20.791,27.039,21.292Zm3.908-8.22c.643-.58,1.129-1.032,1.5-1.395v.529C32.112,12.384,31.643,12.653,30.947,13.072Zm1.5-4.693a45.615,45.615,0,0,1-4.733,3.2c1.046-.915,2.927-2.318,4.733-3.568Zm-2.307-.653c.025-.037.032-.059.053-.093H30.3C30.249,7.666,30.2,7.692,30.143,7.726Zm-3.1.58V8.18c.089-.235.154-.413.2-.547h.9C27.733,7.886,27.358,8.118,27.039,8.306Zm0,1.142c.152-.078.321-.168.53-.289-.173.182-.352.36-.53.542Zm5.41,10.9c-.8.532-1.616,1.064-2.381,1.546l2.381-2.085ZM26.04,4.576c-.286.184-.572.37-.857.549.333-.364.613-.673.857-.945ZM10.953,1.223h.125c-.063.038-.122.068-.186.107C10.92,1.288,10.929,1.261,10.953,1.223ZM8,1.223h.892c-.395.252-.768.482-1.085.669V1.767C7.9,1.534,7.961,1.356,8,1.223ZM7.809,3.034c.152-.078.32-.168.528-.288-.172.181-.351.359-.528.541ZM13.661,1.3a.476.476,0,0,0,.073-.074h1.084a44.2,44.2,0,0,1-6.684,4.27A55.589,55.589,0,0,1,13.661,1.3Zm2.94-.074h.809l-1.563.9A3.931,3.931,0,0,0,16.6,1.223Zm2.967,0h1.387c-.934.547-2.2,1.319-3.968,2.409A27.9,27.9,0,0,0,19.567,1.223ZM7.809,6.6a3.1,3.1,0,0,0,.361-.091l-.192.126h-.17Zm-1,9.577C5.336,17.2,3.754,18.223,2.7,18.818a50.582,50.582,0,0,1,4.112-3.387ZM3.6,19.454c.634-.363,1.387-.835,2.269-1.423-.311.458-.646.949-.971,1.423ZM1.4,14.329l2.776-1.6c-.849.763-1.812,1.616-2.776,2.459ZM6.809,8.376a45.809,45.809,0,0,1-4.736,3.207C3.119,10.667,5,9.262,6.809,8.012ZM4.5,7.727c.025-.038.033-.06.054-.094h.11C4.606,7.666,4.555,7.693,4.5,7.727ZM1.4,8.3V8.186c.09-.237.155-.418.2-.553h.891C2.091,7.886,1.716,8.117,1.4,8.3Zm0,1.142c.152-.078.32-.168.528-.288-.172.181-.351.358-.528.539Zm4.113,4.67C4.4,15.044,2.878,16.19,1.4,17.234v-.6c.377-.211,1.012-.6,2.165-1.318C4.123,14.967,4.834,14.526,5.511,14.116ZM1.4,18.434a.471.471,0,0,0,.061-.021l.552-.318a8.122,8.122,0,0,0-.613.68Zm3.9-5.36c.646-.583,1.133-1.037,1.506-1.4V12.2C6.472,12.382,6,12.653,5.3,13.074Zm1.448-2.991c.022-.022.037-.039.058-.06v.026ZM1.4,12.936c.066-.018.124-.027.195-.052l-.195.139ZM15.832,3.289c-1.2,1.031-2.6,2.217-3.949,3.344H10.039Zm.644,1.836c1.667-1.034,3.887-2.411,5.406-3.285a73.257,73.257,0,0,1-6.548,4.7.483.483,0,0,0-.1.094H14.03C14.633,6.265,15.425,5.776,16.476,5.125Zm10.563,7.812c.066-.018.125-.027.2-.053l-.2.14Zm-6.41,19.231a3.841,3.841,0,0,0,.479-.162c-.121.091-.24.179-.36.269h-.119Zm-1,9.648c-1.473,1.023-3.056,2.047-4.112,2.643a50.484,50.484,0,0,1,4.112-3.387Zm-3.213,3.278c.634-.362,1.389-.834,2.272-1.423-.31.458-.645.949-.971,1.423Zm-2.2-5.124,2.769-1.6c-.847.761-1.807,1.612-2.769,2.453Zm5.41-5.952a45.545,45.545,0,0,1-4.733,3.2c1.046-.915,2.927-2.318,4.733-3.568Zm-2.308-.652c.025-.037.032-.059.053-.093h.109C17.428,33.307,17.377,33.333,17.321,33.367Zm-3.1.578v-.128c.088-.233.153-.41.195-.543h.893C14.911,33.527,14.537,33.758,14.219,33.945Zm0,1.142c.152-.078.321-.168.529-.289-.173.182-.352.359-.529.541Zm4.111,4.669c-1.11.927-2.631,2.073-4.111,3.116v-.6c.377-.212,1.012-.606,2.165-1.318C16.943,40.606,17.654,40.166,18.33,39.756Zm-4.111,4.318a.468.468,0,0,0,.06-.021l.553-.318a8.145,8.145,0,0,0-.612.679Zm3.907-5.362c.644-.581,1.13-1.033,1.5-1.4v.529C19.292,38.022,18.823,38.292,18.126,38.712Zm1.45-2.989c.02-.02.033-.035.053-.054v.024Zm-5.357,2.856c.066-.019.124-.028.2-.053l-.2.14Zm11.206-7.785c-.256.457-.551.974-.844,1.481H22.859Z" transform="translate(0.005 -0.003)" fill="#AAA"></path><path d="M20.629,56.793V55.525c.166-.388.125-.484.046-.623a.48.48,0,0,0-.046-.053V51.5H17.311a.5.5,0,0,0-.121-.056.485.485,0,0,0-.349.056H13.219v.563a.49.49,0,0,0,0,.787v.013c-.011.027-.021.054-.031.081-.4,1.06-.445,1.17-.3,1.408a.593.593,0,0,0,.331.247v2.238c-.22.383-.124.563-.042.7.011.018.03.029.042.046v1.323h.611a.488.488,0,0,0,.646.139l.24-.139H18.28c.012,0,.021.014.033.018a.365.365,0,0,0,.315-.018h2V57.743a.526.526,0,0,0,.113-.045.5.5,0,0,0-.113-.9Zm-6.41,1.122v-.107a3.863,3.863,0,0,0,.479-.162l-.361.269Zm3.155-5.41h.11c-.056.033-.107.059-.163.094C17.346,52.561,17.354,52.539,17.375,52.5Zm-2.96,0h.894c-.4.253-.771.485-1.089.672v-.128C14.307,52.816,14.372,52.638,14.414,52.5Zm-.2,1.814c.152-.078.321-.168.529-.288-.173.181-.351.359-.529.54Zm5.41-1.431v.364a45.475,45.475,0,0,1-4.733,3.2C15.941,55.54,17.822,54.136,19.629,52.887Zm0,2.021v.017l-.036.021Zm-.615,1.526c-.255.457-.55.973-.843,1.48H16.449Z" transform="translate(0.005 -0.003)" fill="#AAA"></path>
    </g>
</svg>
