<svg height="512px" width="512px"  fill="#AAA" xmlns="http://www.w3.org/2000/svg" viewBox="0 0 60 60" x="0px" y="0px"><title>Robots - Solid - 056 - Marvin</title><g><path d="M46,51H41.44l-.54.19A9.3,9.3,0,0,1,35,58H53A7,7,0,0,0,46,51Z"></path><path d="M38.68,51.88l-.5.12-.9.21q-.72.16-1.45.28l-1,.16c-.46.06-.92.11-1.38.16l-1.05.1c-.56,0-1.12.05-1.68.06L30,53l-.69,0c-.56,0-1.12,0-1.68-.06l-1.06-.1c-.46,0-.92-.09-1.38-.16l-1-.17q-.72-.12-1.43-.28L21.83,52l-.5-.12C22.39,54.84,25.89,57,30,57S37.61,54.84,38.68,51.88Z"></path><path d="M19.1,51.19,18.56,51H14a7,7,0,0,0-7,7H25A9.3,9.3,0,0,1,19.1,51.19Z"></path><path d="M30,2C14.56,2,2,13,2,26.5A21.38,21.38,0,0,0,2.48,31c.59-.18,1.2-.35,1.8-.52l1.14-.33c1.18-.32,2.38-.62,3.59-.89,1.56-.36,3.21-.69,5.05-1,2.78-.46,5.69-.81,8.64-1C25.13,27.09,27.58,27,30,27q1.85,0,3.68.07l1.19.06c.81,0,1.62.07,2.42.13h.06l1.38.12c.73.06,1.45.12,2.17.2l.76.09h.1l.64.08c.68.09,1.37.17,2,.27l1.24.2.26,0,1.27.22.72.13.57.11,1.86.39,1,.22,1.58.39,1.79.46,1.58.46,1.22.35A21.39,21.39,0,0,0,58,26.5C58,13,45.44,2,30,2Z"></path><path d="M54.23,32.15l-1.75-.45-1.33-.33L46.5,36.78a2,2,0,0,1-1.5.7h0a2,2,0,0,1-1.5-.67l-6.73-7.57-1.95-.11-1.21-.06Q31.81,29,30,29c-2.24,0-4.51.08-6.76.24l-6.73,7.57a2,2,0,0,1-1.5.67h0a2,2,0,0,1-1.5-.7l-4.63-5.4c-1,.23-2,.46-2.93.72l-1.13.33L3,33c2.24,7.19,8.19,13.16,16.09,16.1h0c.4.15.81.3,1.22.43h0a30.93,30.93,0,0,0,4.77,1.12,32.15,32.15,0,0,0,14.6-1.12c.41-.13.81-.28,1.22-.43C48.82,46.13,54.77,40.15,57,33l-1.24-.37Z"></path></g></svg>
