<svg height="512px" width="512px"  fill="#AAA" xmlns="http://www.w3.org/2000/svg" viewBox="0 0 60 60" x="0px" y="0px"><title>Robots - Solid - 002 - Wall E</title><g><path d="M50.48,31.83l-6.57,2.26h0l-1-2.83L49.51,29l1,2.82ZM47.9,24.27l1,2.83h0l-6.61,2.27-1-2.83,1.17-.4ZM33,12.87V8s0,0,0,0l3.5,2ZM41.71,2.81h0a3.5,3.5,0,1,1-3.66,3.34A3.5,3.5,0,0,1,41.71,2.81ZM27.78,2.38l-1,0h0Zm-9.49.44h.17a3.51,3.51,0,1,1-.17,0ZM23.51,10,27,8s0,0,0,0v4.87ZM27,19h6v2H27Zm-1,4h9V33.48H25V23ZM12.11,24.27,17.27,26l1.46.5a0,0,0,0,1,0,0l-1,2.82-5.69-1.95-.9-.31h0ZM10.51,29l6.6,2.26-1,2.84h0l-6.6-2.26ZM23,52H17V47h6Zm14,0V47h6v5ZM12,56H8.67a1,1,0,0,1,0-2H12a1,1,0,0,1,0,2Zm0-4H7a1,1,0,0,1,0-2h5a1,1,0,0,1,0,2Zm0-4H7a1,1,0,0,1,0-2h5a1,1,0,0,1,0,2Zm0-4H8.67a1,1,0,0,1,0-2H12a1,1,0,0,1,0,2Zm48-3.5A2.5,2.5,0,0,0,57.5,38H45V35.83l6.12-2.1a2,2,0,0,0,1.26-2.55l-1-2.8a2,2,0,0,0-.59-.89,2,2,0,0,0,0-1l-1-2.84a2,2,0,0,0-1-1.15,2,2,0,0,0-1.53-.09L45,23.14V23a2,2,0,0,0-2-2H35V19a2,2,0,0,0-2-2V15.47L38.35,11,43,13.66a1.88,1.88,0,0,0,.9.26l1.52.07h.27l.43,0A6.41,6.41,0,0,0,52,7.79a6.43,6.43,0,0,0-5.27-6.71A5.48,5.48,0,0,0,46,1L41.8.82h0L33.31.43a2,2,0,0,0-2.09,1.9l-.15,3.28a1.75,1.75,0,0,0,0,.4H28.89a1.81,1.81,0,0,0,0-.4l-.15-3.28A2,2,0,0,0,26.69.43L18.2.81h0L14,1a4.87,4.87,0,0,0-.7.07A6.43,6.43,0,0,0,8,7.79,6.41,6.41,0,0,0,13.87,14l.46,0h.26l1.52-.07a1.88,1.88,0,0,0,.9-.26L21.66,11,27,15.47V17a2,2,0,0,0-2,2v2H17a2,2,0,0,0-2,2v.14l-2.25-.77a2,2,0,0,0-2.54,1.26l-1,2.83a1.94,1.94,0,0,0-.07,1,2,2,0,0,0-.58.85l-1,2.85a2,2,0,0,0,1.26,2.53L15,35.83V38H2.5A2.5,2.5,0,0,0,0,40.5v1A2.53,2.53,0,0,0,.5,43,2.53,2.53,0,0,0,0,44.5v1A2.53,2.53,0,0,0,.5,47,2.53,2.53,0,0,0,0,48.5v1A2.53,2.53,0,0,0,.5,51,2.53,2.53,0,0,0,0,52.5v1A2.53,2.53,0,0,0,.5,55,2.53,2.53,0,0,0,0,56.5v1A2.5,2.5,0,0,0,2.5,60H15a2,2,0,0,0,2-2V54h6a2,2,0,0,0,2-2V47H35v5a2,2,0,0,0,2,2h6v4a2,2,0,0,0,2,2H57.5A2.5,2.5,0,0,0,60,57.5v-1a2.53,2.53,0,0,0-.5-1.5,2.53,2.53,0,0,0,.5-1.5v-1a2.53,2.53,0,0,0-.5-1.5,2.53,2.53,0,0,0,.5-1.5v-1a2.53,2.53,0,0,0-.5-1.5,2.53,2.53,0,0,0,.5-1.5v-1a2.53,2.53,0,0,0-.5-1.5,2.53,2.53,0,0,0,.5-1.5ZM48,42h3.33a1,1,0,0,1,0,2H48a1,1,0,0,1,0-2Zm3.33,14H48a1,1,0,0,1,0-2h3.33a1,1,0,0,1,0,2ZM53,52H48a1,1,0,0,1,0-2h5a1,1,0,0,1,0,2Zm0-4H48a1,1,0,0,1,0-2h5a1,1,0,0,1,0,2Z"></path></g></svg>
